<?xml version="1.0" encoding="UTF-8" standalone="no" ?>
<!DOCTYPE svg PUBLIC "-//W3C//DTD SVG 1.1//EN" "http://www.w3.org/Graphics/SVG/1.1/DTD/svg11.dtd">
<svg xmlns="http://www.w3.org/2000/svg" xmlns:xlink="http://www.w3.org/1999/xlink" version="1.1" width="136" height="78" viewBox="0 0 136 78" xml:space="preserve">
<desc>Created with Fabric.js 4.6.0</desc>
<defs>
</defs>
<g transform="matrix(1 0 0 0.99 68 38.83)" id="rlQ_S-EiTpl4OqzEYUbx-"  >
<g style="" vector-effect="non-scaling-stroke"   >
		<g transform="matrix(1 0 0 1 -42.42 -6.2)" id="b61okegy9G7xB298f9vtr"  >
<linearGradient id="SVGID_0" gradientUnits="userSpaceOnUse" gradientTransform="matrix(1 0 0 1 0 0)"  x1="27.5" y1="0" x2="27.5" y2="71">
<stop offset="0%" style="stop-color:rgb(246,245,244);stop-opacity: 1"/>
<stop offset="100%" style="stop-color:rgb(189,108,13);stop-opacity: 1"/>
</linearGradient>
<path style="stroke: none; stroke-width: 1; stroke-dasharray: none; stroke-linecap: butt; stroke-dashoffset: 0; stroke-linejoin: miter; stroke-miterlimit: 4; fill: url(#SVGID_0); fill-rule: nonzero; opacity: 1;" vector-effect="non-scaling-stroke"  transform=" translate(-27.24, -41.6)" d="M 26.088 64.96 C 22.0347 64.96 18.3867 63.9787 15.144 62.016 C 11.9013 60.0533 9.36267 57.3013 7.528 53.76 C 5.69333 50.2187 4.776 46.1653 4.776 41.6 C 4.776 37.12 5.75733 33.1093 7.72 29.568 C 9.72533 26.0267 12.456 23.2533 15.912 21.248 C 19.4107 19.2427 23.3573 18.24 27.752 18.24 C 31.464 18.24 34.8347 18.9653 37.864 20.416 C 40.936 21.824 43.4533 23.8293 45.416 26.432 C 47.4213 29.0347 48.744 32.064 49.384 35.52 L 43.304 35.52 C 42.4933 31.8507 40.7013 28.9707 37.928 26.88 C 35.1973 24.7467 31.848 23.68 27.88 23.68 C 24.552 23.68 21.5653 24.448 18.92 25.984 C 16.3173 27.52 14.2907 29.6533 12.84 32.384 C 11.3893 35.1147 10.664 38.2293 10.664 41.728 C 10.664 45.2693 11.3893 48.4267 12.84 51.2 C 14.3333 53.9307 16.4027 56.0853 19.048 57.664 C 21.6933 59.2 24.7013 59.968 28.072 59.968 C 31.2293 59.968 34.0667 59.2427 36.584 57.792 C 39.144 56.3413 41.128 54.3573 42.536 51.84 C 43.9867 49.28 44.712 46.4 44.712 43.2 L 44.712 42.24 L 28.584 42.24 L 28.584 40.96 L 49.704 40.96 L 49.704 64 L 44.712 64 L 44.712 48.896 C 43.7307 53.8453 41.576 57.7707 38.248 60.672 C 34.9627 63.5307 30.9093 64.96 26.088 64.96 Z" stroke-linecap="round" />
</g>
		<g transform="matrix(1 0 0 1 -12.91 -6.15)" id="PMSpWdC3kz6QD9gX7JRtd"  >
<path style="stroke: none; stroke-width: 1; stroke-dasharray: none; stroke-linecap: butt; stroke-dashoffset: 0; stroke-linejoin: miter; stroke-miterlimit: 4; fill: rgb(212,165,109); fill-rule: nonzero; opacity: 1;" vector-effect="non-scaling-stroke"  transform=" translate(-7.75, -0.65)" d="M 0 1.3 L 0 0 L 15.5 0 L 15.5 1.3 z" stroke-linecap="round" />
</g>
		<g transform="matrix(1 0 0 1 -1.66 -6.2)" id="8OuxGQAmBCYmwrvCM4qhb"  >
<linearGradient id="SVGID_1" gradientUnits="userSpaceOnUse" gradientTransform="matrix(1 0 0 1 0 0)"  x1="69" y1="0" x2="69" y2="72">
<stop offset="0%" style="stop-color:rgb(246,245,244);stop-opacity: 1"/>
<stop offset="100%" style="stop-color:rgb(189,108,13);stop-opacity: 1"/>
</linearGradient>
<path style="stroke: none; stroke-width: 1; stroke-dasharray: none; stroke-linecap: butt; stroke-dashoffset: 0; stroke-linejoin: miter; stroke-miterlimit: 4; fill: url(#SVGID_1); fill-rule: nonzero; opacity: 1;" vector-effect="non-scaling-stroke"  transform=" translate(-68.01, -41.6)" d="M 85.384 64 L 85.384 19.2 L 66.888 19.2 C 62.3227 19.2 58.7387 20.224 56.136 22.272 C 53.5333 24.32 52.232 27.136 52.232 30.72 C 52.232 33.3653 52.9787 35.6053 54.472 37.44 C 55.9227 39.232 58.0133 40.4907 60.744 41.216 L 60.744 41.536 C 57.544 42.176 55.0693 43.456 53.32 45.376 C 51.528 47.296 50.632 49.664 50.632 52.48 C 50.632 54.8267 51.2293 56.8747 52.424 58.624 C 53.576 60.3307 55.24 61.6533 57.416 62.592 C 59.592 63.5307 62.1307 64 65.032 64 L 85.384 64 Z M 66.824 58.56 C 63.6667 58.56 61.1707 57.8347 59.336 56.384 C 57.5013 54.8907 56.584 52.8853 56.584 50.368 C 56.584 47.8507 57.5227 45.8667 59.4 44.416 C 61.2773 42.9653 63.752 42.24 66.824 42.24 L 79.624 42.24 L 79.624 58.56 L 66.824 58.56 Z M 68.232 40.96 C 65.0747 40.96 62.5787 40.2347 60.744 38.784 C 58.9093 37.2907 57.992 35.2853 57.992 32.768 C 57.992 30.2507 58.9093 28.2667 60.744 26.816 C 62.5787 25.3653 65.0747 24.64 68.232 24.64 L 79.624 24.64 L 79.624 40.96 L 68.232 40.96 Z" stroke-linecap="round" />
</g>
		<g transform="matrix(1 0 0 1 24.85 24.44)" id="PbxGFLQeZo2d2BfDmq9Ua"  >
<linearGradient id="SVGID_2" gradientUnits="userSpaceOnUse" gradientTransform="matrix(1 0 0 1 0 0)"  x1="95" y1="64" x2="95" y2="77">
<stop offset="0%" style="stop-color:rgb(255,255,255);stop-opacity: 1"/>
<stop offset="100%" style="stop-color:rgb(246,175,92);stop-opacity: 1"/>
</linearGradient>
<path style="stroke: none; stroke-width: 1; stroke-dasharray: none; stroke-linecap: butt; stroke-dashoffset: 0; stroke-linejoin: miter; stroke-miterlimit: 4; fill: url(#SVGID_2); fill-rule: nonzero; opacity: 1;" vector-effect="non-scaling-stroke"  transform=" translate(-94.52, -72.23)" d="M 58.466 75.121 C 57.9087 75.121 57.388 75.0183 56.904 74.813 C 56.4273 74.6077 56.0057 74.3253 55.639 73.966 C 55.2797 73.5993 54.9973 73.1777 54.792 72.701 C 54.5867 72.217 54.484 71.7 54.484 71.15 C 54.484 70.6 54.583 70.0867 54.781 69.61 C 54.9863 69.126 55.2687 68.7043 55.628 68.345 C 55.9947 67.9783 56.4163 67.6923 56.893 67.487 C 57.377 67.2817 57.8977 67.179 58.455 67.179 C 59.049 67.179 59.61 67.289 60.138 67.509 C 60.666 67.729 61.117 68.0407 61.491 68.444 L 60.919 69.027 C 60.6257 68.6897 60.259 68.4293 59.819 68.246 C 59.3863 68.0553 58.9317 67.96 58.455 67.96 C 58.015 67.96 57.6043 68.0407 57.223 68.202 C 56.849 68.3633 56.519 68.5907 56.233 68.884 C 55.9543 69.17 55.7343 69.5073 55.573 69.896 C 55.419 70.2773 55.342 70.6953 55.342 71.15 C 55.342 71.5973 55.419 72.0153 55.573 72.404 C 55.7343 72.7927 55.9543 73.1337 56.233 73.427 C 56.519 73.713 56.849 73.9367 57.223 74.098 C 57.6043 74.2593 58.015 74.34 58.455 74.34 C 58.9757 74.34 59.445 74.2263 59.863 73.999 C 60.2883 73.7717 60.6293 73.46 60.886 73.064 C 61.15 72.668 61.304 72.2207 61.348 71.722 L 58.587 71.722 L 58.587 70.974 L 62.206 70.974 L 62.206 71.315 C 62.206 71.8503 62.1107 72.349 61.92 72.811 C 61.7293 73.273 61.4653 73.6763 61.128 74.021 C 60.7907 74.3657 60.3947 74.637 59.94 74.835 C 59.4853 75.0257 58.994 75.121 58.466 75.121 Z M 63.3619 75 L 63.3619 67.3 L 64.1759 67.113 L 64.1759 75 L 63.3619 75 Z M 68.1271 75.11 C 67.6064 75.11 67.1298 74.9853 66.6971 74.736 C 66.2718 74.4793 65.9344 74.1347 65.6851 73.702 C 65.4358 73.2693 65.3111 72.7853 65.3111 72.25 C 65.3111 71.7147 65.4358 71.2307 65.6851 70.798 C 65.9344 70.3653 66.2718 70.0243 66.6971 69.775 C 67.1298 69.5183 67.6064 69.39 68.1271 69.39 C 68.6551 69.39 69.1318 69.5183 69.5571 69.775 C 69.9824 70.0243 70.3198 70.3653 70.5691 70.798 C 70.8184 71.2307 70.9431 71.7147 70.9431 72.25 C 70.9431 72.7853 70.8184 73.2693 70.5691 73.702 C 70.3198 74.1347 69.9824 74.4793 69.5571 74.736 C 69.1318 74.9853 68.6551 75.11 68.1271 75.11 Z M 68.1271 74.384 C 68.5011 74.384 68.8384 74.2887 69.1391 74.098 C 69.4471 73.9073 69.6891 73.6507 69.8651 73.328 C 70.0484 73.0053 70.1401 72.646 70.1401 72.25 C 70.1401 71.8467 70.0484 71.4873 69.8651 71.172 C 69.6891 70.8493 69.4471 70.5927 69.1391 70.402 C 68.8384 70.2113 68.5011 70.116 68.1271 70.116 C 67.7531 70.116 67.4121 70.2113 67.1041 70.402 C 66.8034 70.5927 66.5614 70.8493 66.3781 71.172 C 66.2021 71.4873 66.1141 71.8467 66.1141 72.25 C 66.1141 72.646 66.2021 73.0053 66.3781 73.328 C 66.5614 73.6507 66.8034 73.9073 67.1041 74.098 C 67.4121 74.2887 67.7531 74.384 68.1271 74.384 Z M 72.0739 75 L 72.0739 67.3 L 72.8879 67.113 L 72.8879 70.072 C 73.3572 69.6247 73.9475 69.401 74.6589 69.401 C 75.1795 69.401 75.6489 69.5293 76.0669 69.786 C 76.4849 70.0353 76.8149 70.3727 77.0569 70.798 C 77.3062 71.2233 77.4309 71.7037 77.4309 72.239 C 77.4309 72.7743 77.3062 73.2583 77.0569 73.691 C 76.8149 74.1163 76.4849 74.4573 76.0669 74.714 C 75.6489 74.9633 75.1759 75.088 74.6479 75.088 C 74.3252 75.088 74.0099 75.033 73.7019 74.923 C 73.4012 74.813 73.1262 74.6553 72.8769 74.45 L 72.8769 75 L 72.0739 75 Z M 74.5819 74.373 C 74.9705 74.373 75.3189 74.2813 75.6269 74.098 C 75.9349 73.9073 76.1769 73.6543 76.3529 73.339 C 76.5362 73.0163 76.6279 72.6533 76.6279 72.25 C 76.6279 71.8467 76.5362 71.4837 76.3529 71.161 C 76.1769 70.8383 75.9349 70.5853 75.6269 70.402 C 75.3189 70.2113 74.9705 70.116 74.5819 70.116 C 74.2372 70.116 73.9145 70.1857 73.6139 70.325 C 73.3205 70.457 73.0785 70.644 72.8879 70.886 L 72.8879 73.614 C 73.0785 73.8487 73.3242 74.0357 73.6249 74.175 C 73.9255 74.307 74.2445 74.373 74.5819 74.373 Z M 81.1471 75.099 C 80.6191 75.099 80.1388 74.9743 79.7061 74.725 C 79.2808 74.4683 78.9398 74.1237 78.6831 73.691 C 78.4338 73.2583 78.3091 72.7743 78.3091 72.239 C 78.3091 71.711 78.4301 71.2343 78.6721 70.809 C 78.9141 70.3763 79.2405 70.0353 79.6511 69.786 C 80.0618 69.5293 80.5201 69.401 81.0261 69.401 C 81.5175 69.401 81.9575 69.5293 82.3461 69.786 C 82.7421 70.0353 83.0538 70.3763 83.2811 70.809 C 83.5158 71.2343 83.6331 71.711 83.6331 72.239 L 83.6331 72.492 L 79.1121 72.492 C 79.1561 72.8513 79.2698 73.174 79.4531 73.46 C 79.6438 73.746 79.8895 73.9733 80.1901 74.142 C 80.4908 74.3033 80.8208 74.384 81.1801 74.384 C 81.4661 74.384 81.7448 74.34 82.0161 74.252 C 82.2875 74.164 82.5148 74.0393 82.6981 73.878 L 83.2041 74.417 C 82.8961 74.6443 82.5735 74.8167 82.2361 74.934 C 81.9061 75.044 81.5431 75.099 81.1471 75.099 Z M 79.1341 71.843 L 82.8191 71.843 C 82.7751 71.513 82.6651 71.2197 82.4891 70.963 C 82.3205 70.699 82.1078 70.4937 81.8511 70.347 C 81.5945 70.193 81.3121 70.116 81.0041 70.116 C 80.6888 70.116 80.3991 70.1893 80.1351 70.336 C 79.8711 70.4827 79.6511 70.688 79.4751 70.952 C 79.2991 71.2087 79.1855 71.5057 79.1341 71.843 Z M 89.4114 75 L 89.4114 68.059 L 86.6284 68.059 L 86.6284 67.3 L 93.0414 67.3 L 93.0414 68.059 L 90.2584 68.059 L 90.2584 75 L 89.4114 75 Z M 95.2516 75.099 C 94.7236 75.099 94.2433 74.9743 93.8106 74.725 C 93.3853 74.4683 93.0443 74.1237 92.7876 73.691 C 92.5383 73.2583 92.4136 72.7743 92.4136 72.239 C 92.4136 71.711 92.5346 71.2343 92.7766 70.809 C 93.0186 70.3763 93.345 70.0353 93.7556 69.786 C 94.1663 69.5293 94.6246 69.401 95.1306 69.401 C 95.622 69.401 96.062 69.5293 96.4506 69.786 C 96.8466 70.0353 97.1583 70.3763 97.3856 70.809 C 97.6203 71.2343 97.7376 71.711 97.7376 72.239 L 97.7376 72.492 L 93.2166 72.492 C 93.2606 72.8513 93.3743 73.174 93.5576 73.46 C 93.7483 73.746 93.994 73.9733 94.2946 74.142 C 94.5953 74.3033 94.9253 74.384 95.2846 74.384 C 95.5706 74.384 95.8493 74.34 96.1206 74.252 C 96.392 74.164 96.6193 74.0393 96.8026 73.878 L 97.3086 74.417 C 97.0006 74.6443 96.678 74.8167 96.3406 74.934 C 96.0106 75.044 95.6476 75.099 95.2516 75.099 Z M 93.2386 71.843 L 96.9236 71.843 C 96.8796 71.513 96.7696 71.2197 96.5936 70.963 C 96.425 70.699 96.2123 70.4937 95.9556 70.347 C 95.699 70.193 95.4166 70.116 95.1086 70.116 C 94.7933 70.116 94.5036 70.1893 94.2396 70.336 C 93.9756 70.4827 93.7556 70.688 93.5796 70.952 C 93.4036 71.2087 93.29 71.5057 93.2386 71.843 Z M 101.428 75.099 C 100.907 75.099 100.434 74.9743 100.009 74.725 C 99.5833 74.4683 99.246 74.1237 98.9966 73.691 C 98.7473 73.2583 98.6226 72.7743 98.6226 72.239 C 98.6226 71.7037 98.7473 71.2233 98.9966 70.798 C 99.246 70.3653 99.5833 70.0207 100.009 69.764 C 100.434 69.5073 100.907 69.379 101.428 69.379 C 101.831 69.379 102.22 69.456 102.594 69.61 C 102.968 69.7567 103.298 69.9693 103.584 70.248 L 103.067 70.842 C 102.847 70.6073 102.594 70.4313 102.308 70.314 C 102.029 70.1893 101.739 70.127 101.439 70.127 C 101.065 70.127 100.724 70.2223 100.416 70.413 C 100.115 70.5963 99.873 70.8493 99.6896 71.172 C 99.5136 71.4873 99.4256 71.843 99.4256 72.239 C 99.4256 72.635 99.5136 72.9943 99.6896 73.317 C 99.873 73.6397 100.119 73.8963 100.427 74.087 C 100.735 74.2703 101.076 74.362 101.45 74.362 C 101.75 74.362 102.033 74.3033 102.297 74.186 C 102.568 74.0687 102.821 73.8963 103.056 73.669 L 103.562 74.219 C 103.268 74.4977 102.938 74.714 102.572 74.868 C 102.205 75.022 101.824 75.099 101.428 75.099 Z M 104.515 75 L 104.515 67.3 L 105.329 67.113 L 105.329 70.138 C 105.762 69.632 106.341 69.379 107.067 69.379 C 107.485 69.379 107.852 69.4707 108.167 69.654 C 108.49 69.83 108.739 70.0793 108.915 70.402 C 109.099 70.7173 109.19 71.0877 109.19 71.513 L 109.19 75 L 108.387 75 L 108.387 71.678 C 108.387 71.1867 108.248 70.8017 107.969 70.523 C 107.698 70.237 107.324 70.094 106.847 70.094 C 106.517 70.094 106.224 70.1673 105.967 70.314 C 105.711 70.4607 105.498 70.6697 105.329 70.941 L 105.329 75 L 104.515 75 Z M 113.07 75 L 113.07 67.3 L 116.194 67.3 C 116.692 67.3 117.121 67.3807 117.481 67.542 C 117.847 67.7033 118.13 67.9343 118.328 68.235 C 118.526 68.5283 118.625 68.8767 118.625 69.28 C 118.625 69.676 118.518 70.0207 118.306 70.314 C 118.1 70.6073 117.814 70.831 117.448 70.985 C 117.91 71.1243 118.273 71.3553 118.537 71.678 C 118.808 72.0007 118.944 72.3857 118.944 72.833 C 118.944 73.273 118.834 73.658 118.614 73.988 C 118.401 74.3107 118.097 74.56 117.701 74.736 C 117.312 74.912 116.854 75 116.326 75 L 113.07 75 Z M 113.917 70.655 L 116.15 70.655 C 116.648 70.655 117.044 70.5377 117.338 70.303 C 117.638 70.0683 117.789 69.7493 117.789 69.346 C 117.789 68.9427 117.638 68.6237 117.338 68.389 C 117.044 68.1543 116.648 68.037 116.15 68.037 L 113.917 68.037 L 113.917 70.655 Z M 113.917 74.263 L 116.26 74.263 C 116.817 74.263 117.261 74.131 117.591 73.867 C 117.921 73.603 118.086 73.251 118.086 72.811 C 118.086 72.371 117.921 72.019 117.591 71.755 C 117.261 71.491 116.817 71.359 116.26 71.359 L 113.917 71.359 L 113.917 74.263 Z M 122.15 75.11 C 121.732 75.11 121.361 75.022 121.039 74.846 C 120.716 74.6627 120.463 74.4133 120.28 74.098 C 120.104 73.7753 120.016 73.4013 120.016 72.976 L 120.016 69.489 L 120.819 69.489 L 120.819 72.811 C 120.819 73.3023 120.958 73.691 121.237 73.977 C 121.515 74.2557 121.889 74.395 122.359 74.395 C 122.689 74.395 122.982 74.3217 123.239 74.175 C 123.503 74.021 123.715 73.8083 123.877 73.537 L 123.877 69.489 L 124.691 69.489 L 124.691 75 L 123.877 75 L 123.877 74.362 C 123.444 74.8607 122.868 75.11 122.15 75.11 Z M 126.075 75 L 126.075 69.489 L 126.889 69.489 L 126.889 70.27 C 127.058 69.984 127.27 69.764 127.527 69.61 C 127.791 69.4487 128.092 69.368 128.429 69.368 C 128.62 69.368 128.792 69.3937 128.946 69.445 L 128.946 70.193 C 128.851 70.1563 128.755 70.1307 128.66 70.116 C 128.565 70.1013 128.469 70.094 128.374 70.094 C 128.037 70.094 127.74 70.193 127.483 70.391 C 127.234 70.5817 127.036 70.8603 126.889 71.227 L 126.889 75 L 126.075 75 Z M 132.175 77.354 C 131.794 77.354 131.416 77.3027 131.042 77.2 C 130.668 77.1047 130.327 76.9653 130.019 76.782 L 130.371 76.144 C 130.701 76.32 131.005 76.4483 131.284 76.529 C 131.57 76.6097 131.856 76.65 132.142 76.65 C 132.663 76.65 133.059 76.5253 133.33 76.276 C 133.601 76.0267 133.737 75.66 133.737 75.176 L 133.737 74.406 C 133.231 74.8313 132.648 75.044 131.988 75.044 C 131.482 75.044 131.02 74.9193 130.602 74.67 C 130.184 74.4207 129.85 74.0833 129.601 73.658 C 129.359 73.2253 129.238 72.745 129.238 72.217 C 129.238 71.689 129.359 71.2123 129.601 70.787 C 129.85 70.3543 130.184 70.0133 130.602 69.764 C 131.02 69.5147 131.489 69.39 132.01 69.39 C 132.325 69.39 132.63 69.445 132.923 69.555 C 133.224 69.665 133.499 69.8263 133.748 70.039 L 133.748 69.489 L 134.551 69.489 L 134.551 75.165 C 134.551 75.869 134.346 76.408 133.935 76.782 C 133.524 77.1633 132.938 77.354 132.175 77.354 Z M 132.054 74.329 C 132.406 74.329 132.729 74.263 133.022 74.131 C 133.315 73.999 133.554 73.812 133.737 73.57 L 133.737 70.864 C 133.554 70.6293 133.312 70.446 133.011 70.314 C 132.718 70.182 132.399 70.116 132.054 70.116 C 131.673 70.116 131.328 70.2077 131.02 70.391 C 130.719 70.5743 130.481 70.8273 130.305 71.15 C 130.129 71.4653 130.041 71.821 130.041 72.217 C 130.041 72.613 130.129 72.9723 130.305 73.295 C 130.488 73.6103 130.73 73.8633 131.031 74.054 C 131.339 74.2373 131.68 74.329 132.054 74.329 Z" stroke-linecap="round" />
</g>
</g>
</g>
<g transform="matrix(0.36 0 0 0.83 45.57 60.58)" id="pnTZZoIvA4PwFQPh7lauf"  >
<path style="stroke: rgb(144,5,251); stroke-width: 0; stroke-dasharray: none; stroke-linecap: butt; stroke-dashoffset: 0; stroke-linejoin: miter; stroke-miterlimit: 4; fill: rgb(196,126,44); fill-rule: nonzero; opacity: 1;" vector-effect="non-scaling-stroke"  transform=" translate(0, 0)" d="M -6.98869 -6.98869 L 6.9887 -6.98869 L 6.9887 6.9887 L -6.98869 6.9887 z" stroke-linecap="round" />
</g>
</svg>