<svg width="105" height="98" viewBox="0 0 105 98" fill="none" xmlns="http://www.w3.org/2000/svg">
<g filter="url(#filter0_d_1_7)">
<path d="M29.088 64.96C25.0347 64.96 21.3867 63.9787 18.144 62.016C14.9013 60.0533 12.3627 57.3013 10.528 53.76C8.69333 50.2187 7.776 46.1653 7.776 41.6C7.776 37.12 8.75733 33.1093 10.72 29.568C12.7253 26.0267 15.456 23.2533 18.912 21.248C22.4107 19.2427 26.3573 18.24 30.752 18.24C34.464 18.24 37.8347 18.9653 40.864 20.416C43.936 21.824 46.4533 23.8293 48.416 26.432C50.4213 29.0347 51.744 32.064 52.384 35.52H46.304C45.4933 31.8507 43.7013 28.9707 40.928 26.88C38.1973 24.7467 34.848 23.68 30.88 23.68C27.552 23.68 24.5653 24.448 21.92 25.984C19.3173 27.52 17.2907 29.6533 15.84 32.384C14.3893 35.1147 13.664 38.2293 13.664 41.728C13.664 45.2693 14.3893 48.4267 15.84 51.2C17.3333 53.9307 19.4027 56.0853 22.048 57.664C24.6933 59.2 27.7013 59.968 31.072 59.968C34.2293 59.968 37.0667 59.2427 39.584 57.792C42.144 56.3413 44.128 54.3573 45.536 51.84C46.9867 49.28 47.712 46.4 47.712 43.2V42.24H31.584V40.96H52.704V64H47.712V48.896C46.7307 53.8453 44.576 57.7707 41.248 60.672C37.9627 63.5307 33.9093 64.96 29.088 64.96Z" fill="url(#paint0_linear_1_7)"/>
</g>
<g filter="url(#filter1_d_1_7)">
<rect x="53" y="41" width="15.5" height="1.3" fill="url(#paint1_linear_1_7)"/>
</g>
<g filter="url(#filter2_d_1_7)">
<path d="M88.384 64V19.2H69.888C65.3227 19.2 61.7387 20.224 59.136 22.272C56.5333 24.32 55.232 27.136 55.232 30.72C55.232 33.3653 55.9787 35.6053 57.472 37.44C58.9227 39.232 61.0133 40.4907 63.744 41.216V41.536C60.544 42.176 58.0693 43.456 56.32 45.376C54.528 47.296 53.632 49.664 53.632 52.48C53.632 54.8267 54.2293 56.8747 55.424 58.624C56.576 60.3307 58.24 61.6533 60.416 62.592C62.592 63.5307 65.1307 64 68.032 64H88.384ZM69.824 58.56C66.6667 58.56 64.1707 57.8347 62.336 56.384C60.5013 54.8907 59.584 52.8853 59.584 50.368C59.584 47.8507 60.5227 45.8667 62.4 44.416C64.2773 42.9653 66.752 42.24 69.824 42.24H82.624V58.56H69.824ZM71.232 40.96C68.0747 40.96 65.5787 40.2347 63.744 38.784C61.9093 37.2907 60.992 35.2853 60.992 32.768C60.992 30.2507 61.9093 28.2667 63.744 26.816C65.5787 25.3653 68.0747 24.64 71.232 24.64H82.624V40.96H71.232Z" fill="url(#paint2_linear_1_7)"/>
</g>
<g filter="url(#filter3_d_1_7)">
<path d="M47 41H53V81H47V41Z" fill="url(#paint3_linear_1_7)"/>
</g>
<path d="M5.684 95.154C4.97467 95.154 4.312 95.0233 3.696 94.762C3.08933 94.5007 2.55267 94.1413 2.086 93.684C1.62867 93.2173 1.26933 92.6807 1.008 92.074C0.746667 91.458 0.616 90.8 0.616 90.1C0.616 89.4 0.742 88.7467 0.994 88.14C1.25533 87.524 1.61467 86.9873 2.072 86.53C2.53867 86.0633 3.07533 85.6993 3.682 85.438C4.298 85.1767 4.96067 85.046 5.67 85.046C6.426 85.046 7.14 85.186 7.812 85.466C8.484 85.746 9.058 86.1427 9.534 86.656L8.806 87.398C8.43267 86.9687 7.966 86.6373 7.406 86.404C6.85533 86.1613 6.27667 86.04 5.67 86.04C5.11 86.04 4.58733 86.1427 4.102 86.348C3.626 86.5533 3.206 86.8427 2.842 87.216C2.48733 87.58 2.20733 88.0093 2.002 88.504C1.806 88.9893 1.708 89.5213 1.708 90.1C1.708 90.6693 1.806 91.2013 2.002 91.696C2.20733 92.1907 2.48733 92.6247 2.842 92.998C3.206 93.362 3.626 93.6467 4.102 93.852C4.58733 94.0573 5.11 94.16 5.67 94.16C6.33267 94.16 6.93 94.0153 7.462 93.726C8.00333 93.4367 8.43733 93.04 8.764 92.536C9.1 92.032 9.296 91.4627 9.352 90.828H5.838V89.876H10.444V90.31C10.444 90.9913 10.3227 91.626 10.08 92.214C9.83733 92.802 9.50133 93.3153 9.072 93.754C8.64267 94.1927 8.13867 94.538 7.56 94.79C6.98133 95.0327 6.356 95.154 5.684 95.154ZM11.9152 95V85.2L12.9512 84.962V95H11.9152ZM17.9799 95.14C17.3173 95.14 16.7106 94.9813 16.1599 94.664C15.6186 94.3373 15.1893 93.8987 14.8719 93.348C14.5546 92.7973 14.3959 92.1813 14.3959 91.5C14.3959 90.8187 14.5546 90.2027 14.8719 89.652C15.1893 89.1013 15.6186 88.6673 16.1599 88.35C16.7106 88.0233 17.3173 87.86 17.9799 87.86C18.6519 87.86 19.2586 88.0233 19.7999 88.35C20.3413 88.6673 20.7706 89.1013 21.0879 89.652C21.4053 90.2027 21.5639 90.8187 21.5639 91.5C21.5639 92.1813 21.4053 92.7973 21.0879 93.348C20.7706 93.8987 20.3413 94.3373 19.7999 94.664C19.2586 94.9813 18.6519 95.14 17.9799 95.14ZM17.9799 94.216C18.4559 94.216 18.8853 94.0947 19.2679 93.852C19.6599 93.6093 19.9679 93.2827 20.1919 92.872C20.4253 92.4613 20.5419 92.004 20.5419 91.5C20.5419 90.9867 20.4253 90.5293 20.1919 90.128C19.9679 89.7173 19.6599 89.3907 19.2679 89.148C18.8853 88.9053 18.4559 88.784 17.9799 88.784C17.5039 88.784 17.0699 88.9053 16.6779 89.148C16.2953 89.3907 15.9873 89.7173 15.7539 90.128C15.5299 90.5293 15.4179 90.9867 15.4179 91.5C15.4179 92.004 15.5299 92.4613 15.7539 92.872C15.9873 93.2827 16.2953 93.6093 16.6779 93.852C17.0699 94.0947 17.5039 94.216 17.9799 94.216ZM23.0031 95V85.2L24.0391 84.962V88.728C24.6364 88.1587 25.3878 87.874 26.2931 87.874C26.9558 87.874 27.5531 88.0373 28.0851 88.364C28.6171 88.6813 29.0371 89.1107 29.3451 89.652C29.6624 90.1933 29.8211 90.8047 29.8211 91.486C29.8211 92.1673 29.6624 92.7833 29.3451 93.334C29.0371 93.8753 28.6171 94.3093 28.0851 94.636C27.5531 94.9533 26.9511 95.112 26.2791 95.112C25.8684 95.112 25.4671 95.042 25.0751 94.902C24.6924 94.762 24.3424 94.5613 24.0251 94.3V95H23.0031ZM26.1951 94.202C26.6898 94.202 27.1331 94.0853 27.5251 93.852C27.9171 93.6093 28.2251 93.2873 28.4491 92.886C28.6824 92.4753 28.7991 92.0133 28.7991 91.5C28.7991 90.9867 28.6824 90.5247 28.4491 90.114C28.2251 89.7033 27.9171 89.3813 27.5251 89.148C27.1331 88.9053 26.6898 88.784 26.1951 88.784C25.7564 88.784 25.3458 88.8727 24.9631 89.05C24.5898 89.218 24.2818 89.456 24.0391 89.764V93.236C24.2818 93.5347 24.5944 93.7727 24.9771 93.95C25.3598 94.118 25.7658 94.202 26.1951 94.202ZM34.5509 95.126C33.8789 95.126 33.2676 94.9673 32.7169 94.65C32.1756 94.3233 31.7416 93.8847 31.4149 93.334C31.0976 92.7833 30.9389 92.1673 30.9389 91.486C30.9389 90.814 31.0929 90.2073 31.4009 89.666C31.7089 89.1153 32.1242 88.6813 32.6469 88.364C33.1696 88.0373 33.7529 87.874 34.3969 87.874C35.0222 87.874 35.5822 88.0373 36.0769 88.364C36.5809 88.6813 36.9776 89.1153 37.2669 89.666C37.5656 90.2073 37.7149 90.814 37.7149 91.486V91.808H31.9609C32.0169 92.2653 32.1616 92.676 32.3949 93.04C32.6376 93.404 32.9502 93.6933 33.3329 93.908C33.7156 94.1133 34.1356 94.216 34.5929 94.216C34.9569 94.216 35.3116 94.16 35.6569 94.048C36.0022 93.936 36.2916 93.7773 36.5249 93.572L37.1689 94.258C36.7769 94.5473 36.3662 94.7667 35.9369 94.916C35.5169 95.056 35.0549 95.126 34.5509 95.126ZM31.9889 90.982H36.6789C36.6229 90.562 36.4829 90.1887 36.2589 89.862C36.0442 89.526 35.7736 89.2647 35.4469 89.078C35.1202 88.882 34.7609 88.784 34.3689 88.784C33.9676 88.784 33.5989 88.8773 33.2629 89.064C32.9269 89.2507 32.6469 89.512 32.4229 89.848C32.1989 90.1747 32.0542 90.5527 31.9889 90.982ZM45.0691 95V86.166H41.5271V85.2H49.6891V86.166H46.1471V95H45.0691ZM52.5021 95.126C51.8301 95.126 51.2187 94.9673 50.6681 94.65C50.1267 94.3233 49.6927 93.8847 49.3661 93.334C49.0487 92.7833 48.8901 92.1673 48.8901 91.486C48.8901 90.814 49.0441 90.2073 49.3521 89.666C49.6601 89.1153 50.0754 88.6813 50.5981 88.364C51.1207 88.0373 51.7041 87.874 52.3481 87.874C52.9734 87.874 53.5334 88.0373 54.0281 88.364C54.5321 88.6813 54.9287 89.1153 55.2181 89.666C55.5167 90.2073 55.6661 90.814 55.6661 91.486V91.808H49.9121C49.9681 92.2653 50.1127 92.676 50.3461 93.04C50.5887 93.404 50.9014 93.6933 51.2841 93.908C51.6667 94.1133 52.0867 94.216 52.5441 94.216C52.9081 94.216 53.2627 94.16 53.6081 94.048C53.9534 93.936 54.2427 93.7773 54.4761 93.572L55.1201 94.258C54.7281 94.5473 54.3174 94.7667 53.8881 94.916C53.4681 95.056 53.0061 95.126 52.5021 95.126ZM49.9401 90.982H54.6301C54.5741 90.562 54.4341 90.1887 54.2101 89.862C53.9954 89.526 53.7247 89.2647 53.3981 89.078C53.0714 88.882 52.7121 88.784 52.3201 88.784C51.9187 88.784 51.5501 88.8773 51.2141 89.064C50.8781 89.2507 50.5981 89.512 50.3741 89.848C50.1501 90.1747 50.0054 90.5527 49.9401 90.982ZM60.3624 95.126C59.6998 95.126 59.0978 94.9673 58.5564 94.65C58.0151 94.3233 57.5858 93.8847 57.2684 93.334C56.9511 92.7833 56.7924 92.1673 56.7924 91.486C56.7924 90.8047 56.9511 90.1933 57.2684 89.652C57.5858 89.1013 58.0151 88.6627 58.5564 88.336C59.0978 88.0093 59.6998 87.846 60.3624 87.846C60.8758 87.846 61.3704 87.944 61.8464 88.14C62.3224 88.3267 62.7424 88.5973 63.1064 88.952L62.4484 89.708C62.1684 89.4093 61.8464 89.1853 61.4824 89.036C61.1278 88.8773 60.7591 88.798 60.3764 88.798C59.9004 88.798 59.4664 88.9193 59.0744 89.162C58.6918 89.3953 58.3838 89.7173 58.1504 90.128C57.9264 90.5293 57.8144 90.982 57.8144 91.486C57.8144 91.99 57.9264 92.4473 58.1504 92.858C58.3838 93.2687 58.6964 93.5953 59.0884 93.838C59.4804 94.0713 59.9144 94.188 60.3904 94.188C60.7731 94.188 61.1324 94.1133 61.4684 93.964C61.8138 93.8147 62.1358 93.5953 62.4344 93.306L63.0784 94.006C62.7051 94.3607 62.2851 94.636 61.8184 94.832C61.3518 95.028 60.8664 95.126 60.3624 95.126ZM64.2922 95V85.2L65.3282 84.962V88.812C65.8788 88.168 66.6162 87.846 67.5402 87.846C68.0722 87.846 68.5388 87.9627 68.9402 88.196C69.3508 88.42 69.6682 88.7373 69.8922 89.148C70.1255 89.5493 70.2422 90.0207 70.2422 90.562V95H69.2202V90.772C69.2202 90.1467 69.0428 89.6567 68.6882 89.302C68.3428 88.938 67.8668 88.756 67.2602 88.756C66.8402 88.756 66.4668 88.8493 66.1402 89.036C65.8135 89.2227 65.5428 89.4887 65.3282 89.834V95H64.2922ZM75.1796 95V85.2H79.1556C79.7902 85.2 80.3362 85.3027 80.7936 85.508C81.2602 85.7133 81.6196 86.0073 81.8716 86.39C82.1236 86.7633 82.2496 87.2067 82.2496 87.72C82.2496 88.224 82.1142 88.6627 81.8436 89.036C81.5822 89.4093 81.2182 89.694 80.7516 89.89C81.3396 90.0673 81.8016 90.3613 82.1376 90.772C82.4829 91.1827 82.6556 91.6727 82.6556 92.242C82.6556 92.802 82.5156 93.292 82.2356 93.712C81.9649 94.1227 81.5776 94.44 81.0736 94.664C80.5789 94.888 79.9956 95 79.3236 95H75.1796ZM76.2576 89.47H79.0996C79.7342 89.47 80.2382 89.3207 80.6116 89.022C80.9942 88.7233 81.1856 88.3173 81.1856 87.804C81.1856 87.2907 80.9942 86.8847 80.6116 86.586C80.2382 86.2873 79.7342 86.138 79.0996 86.138H76.2576V89.47ZM76.2576 94.062H79.2396C79.9489 94.062 80.5136 93.894 80.9336 93.558C81.3536 93.222 81.5636 92.774 81.5636 92.214C81.5636 91.654 81.3536 91.206 80.9336 90.87C80.5136 90.534 79.9489 90.366 79.2396 90.366H76.2576V94.062ZM86.736 95.14C86.204 95.14 85.7327 95.028 85.322 94.804C84.9113 94.5707 84.5893 94.2533 84.356 93.852C84.132 93.4413 84.02 92.9653 84.02 92.424V87.986H85.042V92.214C85.042 92.8393 85.2193 93.334 85.574 93.698C85.9287 94.0527 86.4047 94.23 87.002 94.23C87.422 94.23 87.7953 94.1367 88.122 93.95C88.458 93.754 88.7287 93.4833 88.934 93.138V87.986H89.97V95H88.934V94.188C88.3833 94.8227 87.6507 95.14 86.736 95.14ZM91.7316 95V87.986H92.7676V88.98C92.9823 88.616 93.2529 88.336 93.5796 88.14C93.9156 87.9347 94.2983 87.832 94.7276 87.832C94.9703 87.832 95.1896 87.8647 95.3856 87.93V88.882C95.2643 88.8353 95.1429 88.8027 95.0216 88.784C94.9003 88.7653 94.7789 88.756 94.6576 88.756C94.2283 88.756 93.8503 88.882 93.5236 89.134C93.2063 89.3767 92.9543 89.7313 92.7676 90.198V95H91.7316ZM99.4953 97.996C99.0099 97.996 98.5293 97.9307 98.0533 97.8C97.5773 97.6787 97.1433 97.5013 96.7513 97.268L97.1993 96.456C97.6193 96.68 98.0066 96.8433 98.3613 96.946C98.7253 97.0487 99.0893 97.1 99.4533 97.1C100.116 97.1 100.62 96.9413 100.965 96.624C101.311 96.3067 101.483 95.84 101.483 95.224V94.244C100.839 94.7853 100.097 95.056 99.2573 95.056C98.6133 95.056 98.0253 94.8973 97.4933 94.58C96.9613 94.2627 96.5366 93.8333 96.2193 93.292C95.9113 92.7413 95.7573 92.13 95.7573 91.458C95.7573 90.786 95.9113 90.1793 96.2193 89.638C96.5366 89.0873 96.9613 88.6533 97.4933 88.336C98.0253 88.0187 98.6226 87.86 99.2853 87.86C99.6866 87.86 100.074 87.93 100.447 88.07C100.83 88.21 101.18 88.4153 101.497 88.686V87.986H102.519V95.21C102.519 96.106 102.258 96.792 101.735 97.268C101.213 97.7533 100.466 97.996 99.4953 97.996ZM99.3413 94.146C99.7893 94.146 100.2 94.062 100.573 93.894C100.947 93.726 101.25 93.488 101.483 93.18V89.736C101.25 89.4373 100.942 89.204 100.559 89.036C100.186 88.868 99.7799 88.784 99.3413 88.784C98.8559 88.784 98.4173 88.9007 98.0253 89.134C97.6426 89.3673 97.3393 89.6893 97.1153 90.1C96.8913 90.5013 96.7793 90.954 96.7793 91.458C96.7793 91.962 96.8913 92.4193 97.1153 92.83C97.3486 93.2313 97.6566 93.5533 98.0393 93.796C98.4313 94.0293 98.8653 94.146 99.3413 94.146Z" fill="url(#paint4_linear_1_7)"/>
<defs>
<filter id="filter0_d_1_7" x="3.776" y="18.24" width="52.928" height="54.72" filterUnits="userSpaceOnUse" color-interpolation-filters="sRGB">
<feFlood flood-opacity="0" result="BackgroundImageFix"/>
<feColorMatrix in="SourceAlpha" type="matrix" values="0 0 0 0 0 0 0 0 0 0 0 0 0 0 0 0 0 0 127 0" result="hardAlpha"/>
<feOffset dy="4"/>
<feGaussianBlur stdDeviation="2"/>
<feComposite in2="hardAlpha" operator="out"/>
<feColorMatrix type="matrix" values="0 0 0 0 0 0 0 0 0 0 0 0 0 0 0 0 0 0 0.25 0"/>
<feBlend mode="normal" in2="BackgroundImageFix" result="effect1_dropShadow_1_7"/>
<feBlend mode="normal" in="SourceGraphic" in2="effect1_dropShadow_1_7" result="shape"/>
</filter>
<filter id="filter1_d_1_7" x="49" y="41" width="23.5" height="9.3" filterUnits="userSpaceOnUse" color-interpolation-filters="sRGB">
<feFlood flood-opacity="0" result="BackgroundImageFix"/>
<feColorMatrix in="SourceAlpha" type="matrix" values="0 0 0 0 0 0 0 0 0 0 0 0 0 0 0 0 0 0 127 0" result="hardAlpha"/>
<feOffset dy="4"/>
<feGaussianBlur stdDeviation="2"/>
<feComposite in2="hardAlpha" operator="out"/>
<feColorMatrix type="matrix" values="0 0 0 0 0 0 0 0 0 0 0 0 0 0 0 0 0 0 0.25 0"/>
<feBlend mode="normal" in2="BackgroundImageFix" result="effect1_dropShadow_1_7"/>
<feBlend mode="normal" in="SourceGraphic" in2="effect1_dropShadow_1_7" result="shape"/>
</filter>
<filter id="filter2_d_1_7" x="49.632" y="19.2" width="42.752" height="52.8" filterUnits="userSpaceOnUse" color-interpolation-filters="sRGB">
<feFlood flood-opacity="0" result="BackgroundImageFix"/>
<feColorMatrix in="SourceAlpha" type="matrix" values="0 0 0 0 0 0 0 0 0 0 0 0 0 0 0 0 0 0 127 0" result="hardAlpha"/>
<feOffset dy="4"/>
<feGaussianBlur stdDeviation="2"/>
<feComposite in2="hardAlpha" operator="out"/>
<feColorMatrix type="matrix" values="0 0 0 0 0 0 0 0 0 0 0 0 0 0 0 0 0 0 0.25 0"/>
<feBlend mode="normal" in2="BackgroundImageFix" result="effect1_dropShadow_1_7"/>
<feBlend mode="normal" in="SourceGraphic" in2="effect1_dropShadow_1_7" result="shape"/>
</filter>
<filter id="filter3_d_1_7" x="43" y="41" width="14" height="48" filterUnits="userSpaceOnUse" color-interpolation-filters="sRGB">
<feFlood flood-opacity="0" result="BackgroundImageFix"/>
<feColorMatrix in="SourceAlpha" type="matrix" values="0 0 0 0 0 0 0 0 0 0 0 0 0 0 0 0 0 0 127 0" result="hardAlpha"/>
<feOffset dy="4"/>
<feGaussianBlur stdDeviation="2"/>
<feComposite in2="hardAlpha" operator="out"/>
<feColorMatrix type="matrix" values="0 0 0 0 0 0 0 0 0 0 0 0 0 0 0 0 0 0 0.25 0"/>
<feBlend mode="normal" in2="BackgroundImageFix" result="effect1_dropShadow_1_7"/>
<feBlend mode="normal" in="SourceGraphic" in2="effect1_dropShadow_1_7" result="shape"/>
</filter>
<linearGradient id="paint0_linear_1_7" x1="30.5" y1="0" x2="30.5" y2="71" gradientUnits="userSpaceOnUse">
<stop stop-color="#D9D9D9"/>
<stop offset="1" stop-color="#453B3B"/>
</linearGradient>
<linearGradient id="paint1_linear_1_7" x1="60.75" y1="41" x2="60.75" y2="42.3" gradientUnits="userSpaceOnUse">
<stop stop-color="#D9D9D9"/>
<stop offset="1" stop-color="#453B3B"/>
</linearGradient>
<linearGradient id="paint2_linear_1_7" x1="72" y1="0" x2="72" y2="72" gradientUnits="userSpaceOnUse">
<stop stop-color="#D9D9D9"/>
<stop offset="1" stop-color="#453B3B"/>
</linearGradient>
<linearGradient id="paint3_linear_1_7" x1="50" y1="41" x2="50" y2="81" gradientUnits="userSpaceOnUse">
<stop stop-color="#D9D9D9"/>
<stop offset="1" stop-color="#453B3B"/>
</linearGradient>
<linearGradient id="paint4_linear_1_7" x1="52.5" y1="81" x2="52.5" y2="88" gradientUnits="userSpaceOnUse">
<stop stop-color="#D9D9D9"/>
<stop offset="1" stop-color="#6F7271"/>
</linearGradient>
</defs>
</svg>
